<?xml version="1.0" encoding="UTF-8"?>
<svg xmlns="http://www.w3.org/2000/svg" xmlns:xlink="http://www.w3.org/1999/xlink" width="750pt" height="599.999999pt" viewBox="0 0 750 599.999999" version="1.2">
<defs>
<clipPath id="clip1">
  <path d="M 83.238281 8.238281 L 534 8.238281 L 534 324 L 83.238281 324 Z M 83.238281 8.238281 "/>
</clipPath>
<clipPath id="clip2">
  <path d="M 518 508 L 603 508 L 603 583.488281 L 518 583.488281 Z M 518 508 "/>
</clipPath>
<clipPath id="clip3">
  <path d="M 246 364 L 658.488281 364 L 658.488281 554 L 246 554 Z M 246 364 "/>
</clipPath>
</defs>
<g id="surface1">
<path style=" stroke:none;fill-rule:nonzero;fill:rgb(20.779419%,64.709473%,56.469727%);fill-opacity:1;" d="M 316.695312 249.605469 L 195.773438 370.527344 C 194.933594 371.199219 194.023438 371.746094 193.039062 372.175781 C 192.054688 372.601562 191.03125 372.890625 189.964844 373.042969 C 188.902344 373.195312 187.839844 373.207031 186.773438 373.070312 C 185.710938 372.9375 184.679688 372.664062 183.6875 372.253906 C 182.695312 371.84375 181.777344 371.3125 180.925781 370.652344 C 180.078125 369.996094 179.332031 369.238281 178.6875 368.378906 C 178.042969 367.519531 177.523438 366.59375 177.125 365.59375 C 176.730469 364.597656 176.476562 363.5625 176.355469 362.496094 L 176.355469 249.605469 Z M 316.695312 249.605469 "/>
<g clip-path="url(#clip1)" clip-rule="nonzero">
<path style=" stroke:none;fill-rule:nonzero;fill:rgb(61.959839%,87.838745%,83.139038%);fill-opacity:1;" d="M 504.007812 323.667969 L 113.199219 323.667969 C 112.21875 323.667969 111.238281 323.617188 110.261719 323.523438 C 109.285156 323.425781 108.316406 323.28125 107.355469 323.089844 C 106.390625 322.898438 105.441406 322.660156 104.503906 322.378906 C 103.5625 322.09375 102.640625 321.761719 101.734375 321.386719 C 100.828125 321.011719 99.941406 320.59375 99.074219 320.128906 C 98.210938 319.667969 97.371094 319.164062 96.554688 318.617188 C 95.738281 318.074219 94.949219 317.488281 94.191406 316.867188 C 93.433594 316.242188 92.707031 315.585938 92.015625 314.890625 C 91.320312 314.199219 90.660156 313.472656 90.039062 312.714844 C 89.417969 311.953125 88.832031 311.167969 88.289062 310.351562 C 87.742188 309.535156 87.238281 308.695312 86.777344 307.828125 C 86.3125 306.964844 85.894531 306.078125 85.519531 305.171875 C 85.144531 304.265625 84.8125 303.34375 84.527344 302.402344 C 84.242188 301.464844 84.003906 300.511719 83.8125 299.550781 C 83.621094 298.589844 83.480469 297.621094 83.382812 296.644531 C 83.285156 295.667969 83.238281 294.6875 83.238281 293.707031 L 83.238281 38.199219 C 83.238281 37.21875 83.285156 36.238281 83.382812 35.261719 C 83.480469 34.285156 83.621094 33.316406 83.8125 32.355469 C 84.003906 31.390625 84.242188 30.441406 84.527344 29.503906 C 84.8125 28.5625 85.144531 27.640625 85.519531 26.734375 C 85.894531 25.828125 86.3125 24.941406 86.777344 24.074219 C 87.238281 23.210938 87.742188 22.371094 88.289062 21.554688 C 88.832031 20.738281 89.417969 19.949219 90.039062 19.191406 C 90.660156 18.433594 91.320312 17.707031 92.015625 17.015625 C 92.707031 16.320312 93.433594 15.660156 94.191406 15.039062 C 94.949219 14.417969 95.738281 13.832031 96.554688 13.289062 C 97.371094 12.742188 98.210938 12.238281 99.074219 11.777344 C 99.941406 11.3125 100.828125 10.894531 101.734375 10.519531 C 102.640625 10.144531 103.5625 9.8125 104.503906 9.527344 C 105.441406 9.242188 106.390625 9.003906 107.355469 8.8125 C 108.316406 8.621094 109.285156 8.480469 110.261719 8.382812 C 111.238281 8.285156 112.21875 8.238281 113.199219 8.238281 L 504.007812 8.238281 C 504.992188 8.238281 505.96875 8.285156 506.945312 8.382812 C 507.921875 8.480469 508.890625 8.621094 509.855469 8.8125 C 510.816406 9.003906 511.769531 9.242188 512.707031 9.527344 C 513.644531 9.8125 514.570312 10.144531 515.476562 10.519531 C 516.382812 10.894531 517.269531 11.3125 518.132812 11.777344 C 519 12.238281 519.839844 12.742188 520.65625 13.289062 C 521.472656 13.832031 522.257812 14.417969 523.015625 15.039062 C 523.773438 15.660156 524.5 16.320312 525.195312 17.015625 C 525.890625 17.707031 526.546875 18.433594 527.167969 19.191406 C 527.792969 19.949219 528.375 20.738281 528.921875 21.554688 C 529.464844 22.371094 529.96875 23.210938 530.433594 24.074219 C 530.894531 24.941406 531.316406 25.828125 531.691406 26.734375 C 532.066406 27.640625 532.394531 28.5625 532.679688 29.503906 C 532.964844 30.441406 533.203125 31.390625 533.394531 32.355469 C 533.585938 33.316406 533.730469 34.285156 533.828125 35.261719 C 533.921875 36.238281 533.96875 37.21875 533.96875 38.199219 L 533.96875 293.707031 C 533.96875 294.6875 533.921875 295.667969 533.828125 296.644531 C 533.730469 297.621094 533.585938 298.589844 533.394531 299.550781 C 533.203125 300.511719 532.964844 301.464844 532.679688 302.402344 C 532.394531 303.34375 532.066406 304.265625 531.691406 305.171875 C 531.316406 306.078125 530.894531 306.964844 530.433594 307.828125 C 529.96875 308.695312 529.464844 309.535156 528.921875 310.351562 C 528.375 311.167969 527.792969 311.953125 527.167969 312.714844 C 526.546875 313.472656 525.890625 314.199219 525.195312 314.890625 C 524.5 315.585938 523.773438 316.242188 523.015625 316.867188 C 522.257812 317.488281 521.472656 318.074219 520.65625 318.617188 C 519.839844 319.164062 519 319.667969 518.132812 320.128906 C 517.269531 320.59375 516.382812 321.011719 515.476562 321.386719 C 514.570312 321.761719 513.644531 322.09375 512.707031 322.378906 C 511.769531 322.660156 510.816406 322.898438 509.855469 323.089844 C 508.890625 323.28125 507.921875 323.425781 506.945312 323.523438 C 505.96875 323.617188 504.992188 323.667969 504.007812 323.667969 Z M 504.007812 323.667969 "/>
</g>
<g clip-path="url(#clip2)" clip-rule="nonzero">
<path style=" stroke:none;fill-rule:nonzero;fill:rgb(45.878601%,82.348633%,75.689697%);fill-opacity:1;" d="M 518.390625 508.945312 L 590.296875 580.851562 C 590.761719 581.386719 591.296875 581.839844 591.902344 582.210938 C 592.511719 582.578125 593.15625 582.847656 593.847656 583.015625 C 594.539062 583.183594 595.238281 583.242188 595.945312 583.191406 C 596.652344 583.140625 597.335938 582.980469 597.996094 582.71875 C 598.652344 582.457031 599.257812 582.097656 599.804688 581.644531 C 600.351562 581.195312 600.816406 580.671875 601.203125 580.074219 C 601.585938 579.476562 601.871094 578.835938 602.054688 578.148438 C 602.238281 577.464844 602.316406 576.765625 602.28125 576.058594 L 602.28125 508.945312 Z M 518.390625 508.945312 "/>
</g>
<g clip-path="url(#clip3)" clip-rule="nonzero">
<path style=" stroke:none;fill-rule:nonzero;fill:rgb(72.158813%,85.879517%,83.139038%);fill-opacity:1;" d="M 264.5625 364.175781 L 640.511719 364.175781 C 641.101562 364.175781 641.6875 364.203125 642.273438 364.261719 C 642.859375 364.320312 643.441406 364.40625 644.019531 364.519531 C 644.597656 364.632812 645.167969 364.777344 645.730469 364.949219 C 646.292969 365.121094 646.847656 365.316406 647.390625 365.542969 C 647.933594 365.769531 648.464844 366.019531 648.984375 366.296875 C 649.503906 366.574219 650.007812 366.875 650.5 367.203125 C 650.988281 367.53125 651.460938 367.882812 651.914062 368.253906 C 652.371094 368.628906 652.808594 369.023438 653.222656 369.4375 C 653.640625 369.855469 654.035156 370.292969 654.40625 370.746094 C 654.78125 371.203125 655.132812 371.675781 655.457031 372.164062 C 655.785156 372.652344 656.089844 373.15625 656.367188 373.675781 C 656.644531 374.195312 656.894531 374.726562 657.121094 375.269531 C 657.34375 375.816406 657.542969 376.367188 657.714844 376.933594 C 657.886719 377.496094 658.027344 378.066406 658.144531 378.644531 C 658.257812 379.222656 658.34375 379.804688 658.402344 380.390625 C 658.460938 380.976562 658.488281 381.5625 658.488281 382.152344 L 658.488281 535.429688 C 658.488281 536.019531 658.460938 536.605469 658.402344 537.191406 C 658.34375 537.777344 658.257812 538.359375 658.144531 538.9375 C 658.027344 539.515625 657.886719 540.085938 657.714844 540.648438 C 657.542969 541.210938 657.34375 541.765625 657.121094 542.308594 C 656.894531 542.855469 656.644531 543.386719 656.367188 543.90625 C 656.089844 544.425781 655.785156 544.929688 655.457031 545.417969 C 655.132812 545.90625 654.78125 546.378906 654.40625 546.835938 C 654.035156 547.289062 653.640625 547.726562 653.222656 548.140625 C 652.808594 548.558594 652.371094 548.953125 651.914062 549.328125 C 651.460938 549.699219 650.988281 550.050781 650.5 550.378906 C 650.007812 550.703125 649.503906 551.007812 648.984375 551.285156 C 648.464844 551.5625 647.933594 551.8125 647.390625 552.039062 C 646.847656 552.265625 646.292969 552.460938 645.730469 552.632812 C 645.167969 552.804688 644.597656 552.949219 644.019531 553.0625 C 643.441406 553.175781 642.859375 553.261719 642.273438 553.320312 C 641.6875 553.378906 641.101562 553.40625 640.511719 553.40625 L 264.5625 553.40625 C 263.972656 553.40625 263.386719 553.378906 262.800781 553.320312 C 262.214844 553.261719 261.632812 553.175781 261.054688 553.0625 C 260.476562 552.945312 259.90625 552.804688 259.34375 552.632812 C 258.78125 552.460938 258.226562 552.265625 257.683594 552.039062 C 257.136719 551.8125 256.605469 551.5625 256.085938 551.285156 C 255.570312 551.007812 255.0625 550.703125 254.574219 550.378906 C 254.085938 550.050781 253.613281 549.699219 253.15625 549.328125 C 252.703125 548.953125 252.265625 548.558594 251.851562 548.140625 C 251.433594 547.726562 251.039062 547.289062 250.664062 546.835938 C 250.292969 546.378906 249.941406 545.90625 249.613281 545.417969 C 249.289062 544.929688 248.984375 544.425781 248.707031 543.90625 C 248.429688 543.386719 248.179688 542.855469 247.953125 542.308594 C 247.726562 541.765625 247.53125 541.210938 247.359375 540.648438 C 247.1875 540.085938 247.046875 539.515625 246.929688 538.9375 C 246.816406 538.359375 246.730469 537.777344 246.671875 537.191406 C 246.613281 536.605469 246.585938 536.019531 246.585938 535.429688 L 246.585938 382.152344 C 246.585938 381.5625 246.613281 380.976562 246.671875 380.390625 C 246.730469 379.804688 246.816406 379.222656 246.929688 378.644531 C 247.046875 378.066406 247.1875 377.496094 247.359375 376.933594 C 247.53125 376.367188 247.726562 375.816406 247.953125 375.269531 C 248.179688 374.726562 248.429688 374.195312 248.707031 373.675781 C 248.984375 373.15625 249.289062 372.652344 249.613281 372.164062 C 249.941406 371.675781 250.292969 371.203125 250.664062 370.746094 C 251.039062 370.292969 251.433594 369.855469 251.851562 369.4375 C 252.265625 369.023438 252.703125 368.628906 253.15625 368.253906 C 253.613281 367.882812 254.085938 367.53125 254.574219 367.203125 C 255.0625 366.875 255.570312 366.574219 256.085938 366.296875 C 256.605469 366.019531 257.136719 365.769531 257.683594 365.542969 C 258.226562 365.316406 258.78125 365.121094 259.34375 364.949219 C 259.90625 364.777344 260.476562 364.632812 261.054688 364.519531 C 261.632812 364.40625 262.214844 364.320312 262.800781 364.261719 C 263.386719 364.203125 263.972656 364.175781 264.5625 364.175781 Z M 264.5625 364.175781 "/>
</g>
<path style=" stroke:none;fill-rule:nonzero;fill:rgb(45.878601%,82.348633%,75.689697%);fill-opacity:1;" d="M 440.613281 364.175781 L 264.5625 364.175781 C 263.972656 364.175781 263.386719 364.203125 262.800781 364.261719 C 262.214844 364.320312 261.632812 364.40625 261.054688 364.519531 C 260.476562 364.632812 259.90625 364.777344 259.34375 364.949219 C 258.78125 365.121094 258.226562 365.316406 257.683594 365.542969 C 257.136719 365.769531 256.605469 366.019531 256.085938 366.296875 C 255.570312 366.574219 255.0625 366.875 254.574219 367.203125 C 254.085938 367.53125 253.613281 367.882812 253.15625 368.253906 C 252.703125 368.628906 252.265625 369.023438 251.851562 369.441406 C 251.433594 369.855469 251.039062 370.292969 250.664062 370.746094 C 250.292969 371.203125 249.941406 371.675781 249.613281 372.164062 C 249.289062 372.652344 248.984375 373.15625 248.707031 373.675781 C 248.429688 374.195312 248.179688 374.726562 247.953125 375.273438 C 247.726562 375.816406 247.53125 376.371094 247.359375 376.933594 C 247.1875 377.496094 247.046875 378.066406 246.929688 378.644531 C 246.816406 379.222656 246.730469 379.804688 246.671875 380.390625 C 246.613281 380.976562 246.585938 381.5625 246.585938 382.152344 L 246.585938 535.550781 C 246.585938 536.140625 246.613281 536.726562 246.671875 537.3125 C 246.730469 537.898438 246.816406 538.480469 246.929688 539.058594 C 247.046875 539.636719 247.1875 540.207031 247.359375 540.769531 C 247.53125 541.332031 247.726562 541.886719 247.953125 542.429688 C 248.179688 542.972656 248.429688 543.503906 248.707031 544.023438 C 248.984375 544.542969 249.289062 545.046875 249.613281 545.539062 C 249.941406 546.027344 250.292969 546.5 250.664062 546.953125 C 251.039062 547.410156 251.433594 547.847656 251.851562 548.261719 C 252.265625 548.679688 252.703125 549.074219 253.15625 549.445312 C 253.613281 549.820312 254.085938 550.171875 254.574219 550.496094 C 255.0625 550.824219 255.570312 551.128906 256.085938 551.40625 C 256.605469 551.683594 257.136719 551.933594 257.683594 552.160156 C 258.226562 552.382812 258.78125 552.582031 259.34375 552.753906 C 259.90625 552.925781 260.476562 553.066406 261.054688 553.183594 C 261.632812 553.296875 262.214844 553.382812 262.800781 553.441406 C 263.386719 553.5 263.972656 553.527344 264.5625 553.527344 L 440.613281 553.527344 Z M 440.613281 364.175781 "/>
<path style=" stroke:none;fill-rule:nonzero;fill:rgb(100%,100%,100%);fill-opacity:1;" d="M 308.542969 217.484375 C 307.5 217.476562 306.464844 217.371094 305.441406 217.160156 C 304.421875 216.949219 303.425781 216.644531 302.464844 216.242188 C 301.5 215.835938 300.585938 215.34375 299.71875 214.761719 C 298.851562 214.179688 298.046875 213.519531 297.308594 212.78125 C 296.570312 212.042969 295.910156 211.242188 295.328125 210.375 C 294.746094 209.507812 294.253906 208.589844 293.851562 207.628906 C 293.445312 206.664062 293.140625 205.671875 292.929688 204.648438 C 292.722656 203.625 292.613281 202.589844 292.605469 201.546875 L 292.605469 197.113281 C 292.613281 194.800781 292.785156 192.5 293.121094 190.210938 C 293.457031 187.925781 293.949219 185.671875 294.601562 183.453125 C 295.253906 181.238281 296.0625 179.078125 297.019531 176.972656 C 297.980469 174.867188 299.082031 172.84375 300.328125 170.894531 C 301.574219 168.949219 302.949219 167.097656 304.457031 165.34375 C 305.964844 163.59375 307.589844 161.953125 309.328125 160.429688 C 311.066406 158.90625 312.90625 157.515625 314.839844 156.25 C 316.777344 154.988281 318.792969 153.867188 320.886719 152.890625 C 321.789062 152.464844 322.664062 151.996094 323.511719 151.480469 C 324.363281 150.964844 325.183594 150.40625 325.972656 149.800781 C 326.761719 149.199219 327.519531 148.554688 328.242188 147.871094 C 328.960938 147.1875 329.644531 146.46875 330.292969 145.710938 C 330.9375 144.953125 331.539062 144.167969 332.101562 143.34375 C 332.664062 142.523438 333.179688 141.675781 333.648438 140.800781 C 334.121094 139.925781 334.542969 139.027344 334.917969 138.109375 C 335.296875 137.1875 335.621094 136.25 335.898438 135.292969 C 336.171875 134.339844 336.398438 133.371094 336.570312 132.390625 C 336.742188 131.414062 336.863281 130.429688 336.933594 129.4375 C 337 128.445312 337.015625 127.453125 336.980469 126.457031 C 336.941406 125.464844 336.851562 124.476562 336.707031 123.492188 C 336.566406 122.507812 336.371094 121.535156 336.125 120.570312 C 335.878906 119.609375 335.582031 118.660156 335.238281 117.730469 C 334.890625 116.796875 334.496094 115.886719 334.050781 114.996094 C 333.605469 114.105469 333.117188 113.242188 332.582031 112.40625 C 332.046875 111.566406 331.46875 110.761719 330.847656 109.984375 C 330.226562 109.207031 329.5625 108.46875 328.863281 107.761719 C 328.164062 107.054688 327.429688 106.390625 326.65625 105.761719 C 325.886719 105.132812 325.082031 104.550781 324.25 104.007812 C 323.417969 103.464844 322.558594 102.96875 321.671875 102.515625 C 320.785156 102.066406 319.878906 101.664062 318.949219 101.308594 C 318.019531 100.957031 317.074219 100.652344 316.113281 100.398438 C 315.152344 100.144531 314.179688 99.941406 313.199219 99.792969 C 312.214844 99.640625 311.226562 99.542969 310.234375 99.496094 C 309.238281 99.453125 308.246094 99.460938 307.253906 99.519531 C 306.261719 99.582031 305.277344 99.691406 304.296875 99.859375 C 303.316406 100.023438 302.347656 100.242188 301.390625 100.507812 C 300.433594 100.777344 299.492188 101.09375 298.566406 101.464844 C 297.644531 101.832031 296.742188 102.246094 295.863281 102.710938 C 294.984375 103.175781 294.132812 103.683594 293.308594 104.238281 C 292.480469 104.792969 291.6875 105.390625 290.925781 106.03125 C 289.28125 107.351562 287.808594 108.839844 286.503906 110.5 C 285.199219 112.160156 284.101562 113.945312 283.207031 115.855469 C 282.316406 117.769531 281.648438 119.757812 281.210938 121.820312 C 280.777344 123.886719 280.578125 125.972656 280.621094 128.082031 C 280.535156 129.074219 280.359375 130.050781 280.089844 131.011719 C 279.824219 131.96875 279.46875 132.894531 279.027344 133.789062 C 278.589844 134.683594 278.070312 135.527344 277.472656 136.324219 C 276.875 137.121094 276.210938 137.859375 275.476562 138.53125 C 274.742188 139.203125 273.953125 139.804688 273.105469 140.332031 C 272.261719 140.855469 271.375 141.300781 270.445312 141.660156 C 269.515625 142.023438 268.5625 142.296875 267.585938 142.480469 C 266.605469 142.664062 265.617188 142.753906 264.621094 142.753906 C 263.625 142.753906 262.636719 142.664062 261.660156 142.480469 C 260.679688 142.296875 259.726562 142.023438 258.796875 141.660156 C 257.871094 141.300781 256.984375 140.855469 256.136719 140.332031 C 255.292969 139.804688 254.5 139.203125 253.765625 138.53125 C 253.035156 137.859375 252.367188 137.121094 251.769531 136.324219 C 251.171875 135.527344 250.65625 134.683594 250.214844 133.789062 C 249.773438 132.894531 249.421875 131.96875 249.152344 131.011719 C 248.886719 130.050781 248.707031 129.074219 248.621094 128.082031 C 248.625 126.308594 248.707031 124.542969 248.867188 122.777344 C 249.027344 121.011719 249.265625 119.257812 249.582031 117.515625 C 249.898438 115.773438 250.292969 114.046875 250.761719 112.339844 C 251.230469 110.628906 251.773438 108.945312 252.390625 107.285156 C 253.011719 105.625 253.699219 103.996094 254.464844 102.398438 C 255.226562 100.796875 256.058594 99.234375 256.960938 97.710938 C 257.863281 96.183594 258.828125 94.703125 259.863281 93.265625 C 260.894531 91.824219 261.988281 90.433594 263.144531 89.089844 C 264.300781 87.75 265.515625 86.460938 266.785156 85.226562 C 268.058594 83.992188 269.378906 82.816406 270.753906 81.699219 C 272.128906 80.582031 273.550781 79.527344 275.019531 78.535156 C 276.488281 77.542969 278 76.621094 279.546875 75.761719 C 281.097656 74.90625 282.683594 74.117188 284.304688 73.402344 C 285.925781 72.683594 287.574219 72.042969 289.25 71.472656 C 290.929688 70.902344 292.628906 70.40625 294.347656 69.984375 C 296.070312 69.566406 297.808594 69.222656 299.558594 68.957031 C 301.308594 68.691406 303.070312 68.503906 304.839844 68.394531 C 306.605469 68.285156 308.375 68.253906 310.148438 68.300781 C 311.917969 68.347656 313.683594 68.476562 315.445312 68.679688 C 317.203125 68.882812 318.949219 69.164062 320.6875 69.523438 C 322.421875 69.882812 324.136719 70.316406 325.832031 70.828125 C 327.527344 71.339844 329.199219 71.925781 330.84375 72.585938 C 332.488281 73.242188 334.101562 73.972656 335.679688 74.777344 C 337.257812 75.578125 338.800781 76.449219 340.304688 77.386719 C 341.804688 78.328125 343.261719 79.332031 344.675781 80.398438 C 346.089844 81.46875 347.453125 82.597656 348.765625 83.785156 C 350.078125 84.976562 351.335938 86.21875 352.539062 87.519531 C 353.742188 88.820312 354.886719 90.171875 355.96875 91.574219 C 357.050781 92.976562 358.070312 94.425781 359.023438 95.917969 C 359.980469 97.410156 360.867188 98.941406 361.683594 100.511719 C 362.503906 102.085938 363.25 103.6875 363.925781 105.324219 C 364.605469 106.964844 365.207031 108.628906 365.734375 110.320312 C 366.265625 112.007812 366.71875 113.71875 367.09375 115.453125 C 367.472656 117.183594 367.769531 118.925781 367.992188 120.683594 C 368.214844 122.441406 368.359375 124.207031 368.425781 125.976562 C 368.492188 127.746094 368.476562 129.515625 368.386719 131.285156 C 368.296875 133.054688 368.125 134.816406 367.878906 136.570312 C 367.632812 138.328125 367.308594 140.066406 366.90625 141.792969 C 366.503906 143.515625 366.027344 145.222656 365.472656 146.90625 C 364.917969 148.589844 364.292969 150.242188 363.59375 151.871094 C 362.894531 153.5 362.125 155.09375 361.28125 156.652344 C 360.441406 158.210938 359.53125 159.730469 358.558594 161.207031 C 357.582031 162.6875 356.542969 164.121094 355.4375 165.507812 C 354.335938 166.890625 353.171875 168.226562 351.953125 169.511719 C 350.730469 170.792969 349.453125 172.019531 348.125 173.191406 C 346.792969 174.363281 345.414062 175.472656 343.988281 176.519531 C 342.558594 177.566406 341.085938 178.550781 339.570312 179.464844 C 338.054688 180.382812 336.5 181.230469 334.910156 182.011719 C 334.164062 182.34375 333.441406 182.726562 332.75 183.164062 C 332.054688 183.597656 331.394531 184.078125 330.769531 184.605469 C 330.144531 185.132812 329.558594 185.703125 329.015625 186.3125 C 328.46875 186.921875 327.972656 187.566406 327.515625 188.25 C 327.0625 188.929688 326.660156 189.636719 326.304688 190.375 C 325.953125 191.113281 325.652344 191.875 325.40625 192.652344 C 325.160156 193.433594 324.96875 194.226562 324.835938 195.035156 C 324.699219 195.839844 324.625 196.652344 324.605469 197.472656 L 324.605469 201.90625 C 324.574219 202.941406 324.441406 203.960938 324.214844 204.96875 C 323.988281 205.980469 323.664062 206.957031 323.246094 207.902344 C 322.828125 208.851562 322.324219 209.75 321.734375 210.597656 C 321.144531 211.449219 320.476562 212.230469 319.734375 212.953125 C 318.992188 213.671875 318.1875 214.316406 317.320312 214.878906 C 316.453125 215.445312 315.539062 215.921875 314.582031 216.3125 C 313.621094 216.699219 312.636719 216.992188 311.621094 217.191406 C 310.605469 217.386719 309.578125 217.484375 308.542969 217.484375 Z M 308.542969 217.484375 "/>
<path style=" stroke:none;fill-rule:nonzero;fill:rgb(100%,100%,100%);fill-opacity:1;" d="M 308.542969 264.105469 C 306.445312 264.09375 304.421875 263.695312 302.476562 262.90625 C 300.527344 262.121094 298.796875 261.003906 297.277344 259.550781 C 296.5625 258.769531 295.925781 257.929688 295.363281 257.035156 C 294.679688 256.207031 294.160156 255.289062 293.804688 254.277344 C 293.414062 253.308594 293.132812 252.3125 292.964844 251.28125 C 292.855469 250.242188 292.855469 249.203125 292.964844 248.164062 C 292.839844 247.125 292.839844 246.089844 292.964844 245.050781 C 293.132812 243.980469 293.410156 242.941406 293.804688 241.933594 C 294.164062 240.960938 294.683594 240.082031 295.363281 239.296875 C 295.867188 238.390625 296.507812 237.59375 297.277344 236.898438 C 298.035156 236.1875 298.847656 235.554688 299.722656 234.996094 C 300.601562 234.4375 301.519531 233.96875 302.484375 233.585938 C 303.449219 233.203125 304.441406 232.914062 305.460938 232.71875 C 306.476562 232.523438 307.507812 232.425781 308.542969 232.425781 C 309.582031 232.425781 310.609375 232.523438 311.628906 232.71875 C 312.648438 232.914062 313.640625 233.203125 314.605469 233.585938 C 315.570312 233.96875 316.488281 234.4375 317.363281 234.996094 C 318.238281 235.554688 319.054688 236.1875 319.808594 236.898438 C 320.617188 237.589844 321.296875 238.386719 321.847656 239.296875 C 322.480469 240.109375 323 240.988281 323.40625 241.933594 C 323.742188 242.957031 324.019531 243.996094 324.242188 245.050781 C 324.367188 246.089844 324.367188 247.125 324.242188 248.164062 C 324.355469 249.203125 324.355469 250.242188 324.242188 251.28125 C 324.019531 252.296875 323.742188 253.292969 323.40625 254.277344 C 323.007812 255.265625 322.488281 256.183594 321.847656 257.035156 C 321.242188 257.929688 320.5625 258.769531 319.808594 259.550781 C 318.304688 261.023438 316.578125 262.15625 314.628906 262.945312 C 312.675781 263.730469 310.648438 264.121094 308.542969 264.105469 Z M 308.542969 264.105469 "/>
<path style=" stroke:none;fill-rule:nonzero;fill:rgb(100%,100%,100%);fill-opacity:1;" d="M 395.910156 491.207031 L 360.675781 414.269531 C 360.167969 413.101562 359.507812 412.03125 358.6875 411.054688 C 357.867188 410.082031 356.925781 409.246094 355.859375 408.546875 C 354.796875 407.847656 353.652344 407.316406 352.433594 406.949219 C 351.210938 406.585938 349.964844 406.402344 348.691406 406.402344 C 347.417969 406.402344 346.171875 406.585938 344.953125 406.949219 C 343.730469 407.316406 342.589844 407.847656 341.523438 408.546875 C 340.460938 409.246094 339.519531 410.082031 338.699219 411.054688 C 337.878906 412.03125 337.214844 413.101562 336.707031 414.269531 L 300.753906 492.289062 C 300.5625 492.71875 300.390625 493.160156 300.242188 493.609375 C 300.097656 494.0625 299.972656 494.519531 299.875 494.980469 C 299.777344 495.445312 299.703125 495.914062 299.65625 496.382812 C 299.605469 496.855469 299.585938 497.328125 299.585938 497.800781 C 299.589844 498.273438 299.617188 498.746094 299.667969 499.21875 C 299.722656 499.6875 299.800781 500.15625 299.902344 500.617188 C 300.003906 501.078125 300.132812 501.535156 300.28125 501.984375 C 300.433594 502.433594 300.609375 502.875 300.804688 503.304688 C 301.003906 503.734375 301.226562 504.152344 301.46875 504.558594 C 301.710938 504.964844 301.972656 505.359375 302.257812 505.738281 C 302.542969 506.117188 302.847656 506.476562 303.171875 506.824219 C 303.496094 507.167969 303.835938 507.496094 304.195312 507.808594 C 304.554688 508.117188 304.925781 508.40625 305.316406 508.675781 C 305.707031 508.945312 306.109375 509.195312 306.523438 509.421875 C 306.941406 509.648438 307.367188 509.851562 307.804688 510.03125 C 308.242188 510.214844 308.6875 510.371094 309.144531 510.503906 C 309.945312 510.691406 310.753906 510.804688 311.574219 510.851562 C 312.394531 510.894531 313.210938 510.867188 314.027344 510.769531 C 314.84375 510.671875 315.644531 510.507812 316.429688 510.269531 C 317.214844 510.03125 317.976562 509.730469 318.710938 509.359375 C 319.441406 508.988281 320.140625 508.558594 320.796875 508.070312 C 321.457031 507.578125 322.066406 507.035156 322.632812 506.4375 C 323.195312 505.839844 323.703125 505.199219 324.15625 504.511719 C 324.605469 503.828125 324.996094 503.109375 325.324219 502.355469 L 346.894531 455.136719 C 347.027344 454.789062 347.25 454.507812 347.554688 454.300781 C 347.859375 454.089844 348.199219 453.984375 348.574219 453.984375 C 348.945312 453.984375 349.285156 454.089844 349.589844 454.300781 C 349.898438 454.507812 350.117188 454.789062 350.25 455.136719 L 358.878906 473.832031 L 348.691406 473.832031 C 348.402344 473.832031 348.113281 473.859375 347.828125 473.917969 C 347.542969 473.972656 347.265625 474.058594 346.996094 474.167969 C 346.726562 474.28125 346.472656 474.417969 346.230469 474.578125 C 345.988281 474.742188 345.761719 474.925781 345.558594 475.128906 C 345.351562 475.335938 345.167969 475.558594 345.003906 475.800781 C 344.84375 476.042969 344.707031 476.300781 344.59375 476.570312 C 344.484375 476.835938 344.398438 477.113281 344.34375 477.402344 C 344.285156 477.6875 344.257812 477.972656 344.257812 478.265625 C 344.273438 478.847656 344.394531 479.410156 344.625 479.945312 C 344.855469 480.480469 345.175781 480.953125 345.589844 481.367188 C 346.003906 481.78125 346.476562 482.101562 347.011719 482.332031 C 347.550781 482.5625 348.109375 482.683594 348.691406 482.699219 L 358.878906 482.699219 C 359.53125 482.710938 360.167969 482.808594 360.792969 482.996094 C 361.414062 483.183594 362.003906 483.449219 362.550781 483.800781 C 363.101562 484.148438 363.59375 484.566406 364.027344 485.050781 C 364.464844 485.535156 364.824219 486.070312 365.109375 486.65625 L 372.660156 503.191406 C 373.171875 504.355469 373.839844 505.417969 374.664062 506.386719 C 375.484375 507.351562 376.429688 508.179688 377.492188 508.871094 C 378.558594 509.5625 379.699219 510.089844 380.914062 510.449219 C 382.132812 510.808594 383.375 510.984375 384.644531 510.984375 C 385.820312 511.015625 386.976562 510.894531 388.121094 510.621094 C 389.261719 510.34375 390.347656 509.925781 391.378906 509.363281 C 392.410156 508.800781 393.351562 508.113281 394.199219 507.304688 C 395.050781 506.492188 395.777344 505.585938 396.386719 504.578125 C 396.996094 503.574219 397.460938 502.507812 397.789062 501.382812 C 398.117188 500.253906 398.289062 499.101562 398.3125 497.925781 C 398.332031 496.753906 398.199219 495.597656 397.914062 494.457031 C 397.628906 493.316406 397.203125 492.234375 396.628906 491.207031 Z M 395.910156 491.207031 "/>
<path style=" stroke:none;fill-rule:nonzero;fill:rgb(100%,100%,100%);fill-opacity:1;" d="M 479.5625 420.980469 L 621.9375 420.980469 L 621.9375 429.847656 L 479.5625 429.847656 Z M 479.5625 420.980469 "/>
<path style=" stroke:none;fill-rule:nonzero;fill:rgb(100%,100%,100%);fill-opacity:1;" d="M 479.5625 443.269531 L 621.9375 443.269531 L 621.9375 452.140625 L 479.5625 452.140625 Z M 479.5625 443.269531 "/>
<path style=" stroke:none;fill-rule:nonzero;fill:rgb(100%,100%,100%);fill-opacity:1;" d="M 479.5625 465.441406 L 621.9375 465.441406 L 621.9375 474.3125 L 479.5625 474.3125 Z M 479.5625 465.441406 "/>
<path style=" stroke:none;fill-rule:nonzero;fill:rgb(100%,100%,100%);fill-opacity:1;" d="M 479.5625 487.613281 L 583.707031 487.613281 L 583.707031 496.480469 L 479.5625 496.480469 Z M 479.5625 487.613281 "/>
</g>
</svg>
