<?xml version="1.0" encoding="UTF-8"?>
<svg xmlns="http://www.w3.org/2000/svg" xmlns:xlink="http://www.w3.org/1999/xlink" width="750pt" height="599.999999pt" viewBox="0 0 750 599.999999" version="1.2">
<defs>
<clipPath id="clip1">
  <path d="M 20.496094 0 L 704 0 L 704 600 L 20.496094 600 Z M 20.496094 0 "/>
</clipPath>
<clipPath id="clip2">
  <path d="M 445 325 L 728.988281 325 L 728.988281 475 L 445 475 Z M 445 325 "/>
</clipPath>
</defs>
<g id="surface1">
<g clip-path="url(#clip1)" clip-rule="nonzero">
<path style=" stroke:none;fill-rule:nonzero;fill:rgb(78.039551%,92.939758%,90.19928%);fill-opacity:1;" d="M 672.148438 355.917969 C 681.601562 337.957031 687.015625 317.542969 687.015625 295.832031 C 687.015625 240.660156 652.378906 193.691406 603.734375 175.183594 C 603.734375 175.125 603.742188 175.066406 603.742188 175 C 603.742188 78.351562 525.449219 0 428.867188 0 C 347.394531 0 279.136719 55.839844 259.714844 131.308594 C 247.425781 127.265625 234.328125 125 220.6875 125 C 156.632812 125 103.914062 173.273438 96.691406 235.433594 C 53.359375 244.609375 20.832031 283.074219 20.832031 329.167969 C 20.832031 382.089844 63.707031 425 116.59375 425 C 118.070312 425 119.527344 424.898438 120.976562 424.816406 C 120.941406 426.273438 120.757812 427.699219 120.757812 429.167969 C 120.757812 523.515625 197.1875 600 291.46875 600 C 345.070312 600 392.851562 575.234375 424.15625 536.550781 C 442.292969 555.089844 467.507812 566.667969 495.488281 566.667969 C 534.207031 566.667969 567.71875 544.582031 584.304688 512.351562 C 593.066406 515.140625 602.382812 516.667969 612.066406 516.667969 C 662.65625 516.667969 703.667969 475.625 703.667969 425 C 703.667969 397.410156 691.425781 372.726562 672.148438 355.917969 Z M 672.148438 355.917969 "/>
</g>
<path style=" stroke:none;fill-rule:nonzero;fill:rgb(99.21875%,98.81897%,93.728638%);fill-opacity:1;" d="M 538.164062 470.832031 C 538.164062 470.832031 507.851562 470.832031 487.160156 470.832031 C 466.464844 470.832031 449.6875 454.042969 449.6875 433.332031 C 449.6875 413.890625 464.527344 398.089844 483.453125 396.207031 C 483.269531 394.699219 482.996094 393.226562 482.996094 391.667969 C 482.996094 370.957031 499.773438 354.167969 520.46875 354.167969 C 532.441406 354.167969 542.976562 359.882812 549.839844 368.632812 C 551.003906 346.667969 569.007812 329.167969 591.25 329.167969 C 614.242188 329.167969 632.886719 347.824219 632.886719 370.832031 C 632.886719 374.550781 632.246094 378.082031 631.328125 381.515625 C 636.675781 375.042969 644.652344 370.832031 653.703125 370.832031 C 668.535156 370.832031 680.636719 381.957031 682.476562 396.292969 C 683.984375 396.109375 685.457031 395.832031 687.015625 395.832031 C 707.707031 395.832031 724.488281 412.625 724.488281 433.332031 C 724.488281 454.042969 707.707031 470.832031 687.015625 470.832031 C 666.320312 470.832031 607.90625 470.832031 607.90625 470.832031 L 563.144531 470.832031 L 563.144531 475 L 538.164062 475 Z M 538.164062 470.832031 "/>
<g clip-path="url(#clip2)" clip-rule="nonzero">
<path style=" stroke:none;fill-rule:nonzero;fill:rgb(27.839661%,16.859436%,16.079712%);fill-opacity:1;" d="M 591.25 325 C 616.507812 325 637.050781 345.558594 637.050781 370.832031 C 637.050781 370.964844 637.050781 371.089844 637.050781 371.226562 C 642.0625 368.265625 647.792969 366.667969 653.703125 366.667969 C 668.953125 366.667969 682.109375 377.175781 685.832031 391.707031 C 686.222656 391.683594 686.613281 391.667969 687.015625 391.667969 C 709.972656 391.667969 728.648438 410.359375 728.648438 433.332031 C 728.648438 456.308594 709.972656 475 687.015625 475 L 563.144531 475 C 560.847656 475 558.980469 473.132812 558.980469 470.832031 C 558.980469 468.535156 560.847656 466.667969 563.144531 466.667969 L 687.015625 466.667969 C 705.382812 466.667969 720.324219 451.714844 720.324219 433.332031 C 720.324219 414.949219 705.382812 400 687.015625 400 C 686.039062 400 685.097656 400.140625 684.15625 400.265625 L 682.984375 400.425781 C 682.808594 400.449219 682.640625 400.457031 682.46875 400.457031 C 680.417969 400.457031 678.621094 398.917969 678.34375 396.816406 C 676.753906 384.375 666.164062 375 653.703125 375 C 646.335938 375 639.355469 378.339844 634.542969 384.167969 C 633.726562 385.148438 632.535156 385.683594 631.328125 385.683594 C 630.679688 385.683594 630.03125 385.535156 629.429688 385.214844 C 627.691406 384.324219 626.816406 382.332031 627.316406 380.441406 C 628.273438 376.816406 628.722656 373.765625 628.722656 370.832031 C 628.722656 350.160156 611.910156 333.332031 591.25 333.332031 C 571.421875 333.332031 555.050781 348.933594 553.992188 368.859375 C 553.902344 370.589844 552.746094 372.082031 551.085938 372.609375 C 550.671875 372.742188 550.246094 372.808594 549.820312 372.808594 C 548.574219 372.808594 547.355469 372.234375 546.558594 371.207031 C 540.136719 363.023438 530.636719 358.332031 520.46875 358.332031 C 502.097656 358.332031 487.160156 373.285156 487.160156 391.667969 C 487.160156 392.640625 487.300781 393.582031 487.425781 394.523438 L 487.582031 395.699219 C 487.71875 396.816406 487.402344 397.933594 486.699219 398.808594 C 486 399.683594 484.976562 400.242188 483.871094 400.351562 C 466.75 402.058594 453.851562 416.242188 453.851562 433.332031 C 453.851562 451.714844 468.789062 466.667969 487.160156 466.667969 L 538.164062 466.667969 C 540.460938 466.667969 542.328125 468.535156 542.328125 470.832031 C 542.328125 473.132812 540.460938 475 538.164062 475 L 487.160156 475 C 464.199219 475 445.523438 456.308594 445.523438 433.332031 C 445.523438 413.359375 459.585938 396.558594 478.855469 392.691406 C 478.839844 392.351562 478.832031 392.007812 478.832031 391.667969 C 478.832031 368.691406 497.511719 350 520.46875 350 C 530.261719 350 539.5625 353.464844 546.972656 359.699219 C 551.953125 339.667969 569.972656 325 591.25 325 Z M 591.25 325 "/>
</g>
<path style=" stroke:none;fill-rule:nonzero;fill:rgb(27.839661%,16.859436%,16.079712%);fill-opacity:1;" d="M 603.742188 383.332031 C 615.425781 383.332031 625.46875 391.660156 628 402.839844 C 631.054688 400.992188 634.542969 400 638.089844 400 C 648.101562 400 656.394531 407.476562 657.683594 417.234375 C 659.375 416.851562 660.984375 416.667969 662.554688 416.667969 C 675.289062 416.667969 685.964844 426.667969 686.855469 439.433594 C 686.929688 440.582031 686.0625 441.582031 684.921875 441.667969 C 684.875 441.667969 684.824219 441.667969 684.773438 441.667969 C 683.691406 441.667969 682.773438 440.824219 682.699219 439.734375 C 681.960938 429.140625 673.117188 420.832031 662.554688 420.832031 C 660.648438 420.832031 658.644531 421.183594 656.410156 421.890625 C 656.226562 421.949219 656.035156 421.976562 655.851562 421.976562 C 655.394531 421.976562 654.9375 421.808594 654.554688 421.523438 C 654.019531 421.140625 653.703125 420.457031 653.703125 419.792969 C 653.703125 411.175781 646.703125 404.167969 638.089844 404.167969 C 634.367188 404.167969 630.722656 405.566406 627.839844 408.109375 C 627.449219 408.449219 626.957031 408.632812 626.464844 408.632812 C 626.199219 408.632812 625.941406 408.582031 625.691406 408.476562 C 624.957031 408.183594 624.460938 407.5 624.402344 406.707031 C 623.535156 395.933594 614.464844 387.5 603.742188 387.5 C 602.007812 387.5 600.203125 387.785156 598.0625 388.390625 C 597.871094 388.449219 597.671875 388.476562 597.480469 388.476562 C 596.570312 388.476562 595.753906 387.867188 595.488281 386.957031 C 595.171875 385.851562 595.8125 384.699219 596.921875 384.382812 C 599.4375 383.667969 601.609375 383.332031 603.742188 383.332031 Z M 488.132812 395.832031 C 499.175781 395.832031 509.019531 403.308594 512.066406 414.015625 C 512.382812 415.125 511.742188 416.273438 510.632812 416.589844 C 510.433594 416.640625 510.242188 416.667969 510.058594 416.667969 C 509.152344 416.667969 508.320312 416.066406 508.0625 415.148438 C 505.519531 406.234375 497.328125 400 488.132812 400 C 487.160156 400 486.21875 400.117188 485.285156 400.242188 C 485.183594 400.257812 485.09375 400.265625 484.992188 400.265625 C 483.988281 400.265625 483.085938 399.5 482.945312 398.457031 C 482.789062 397.316406 483.585938 396.265625 484.726562 396.117188 C 485.84375 395.964844 486.976562 395.832031 488.132812 395.832031 Z M 488.132812 395.832031 "/>
<path style=" stroke:none;fill-rule:nonzero;fill:rgb(100%,100%,100%);fill-opacity:1;" d="M 174.09375 466.667969 L 91.613281 466.667969 C 89.316406 466.667969 87.449219 464.800781 87.449219 462.5 C 87.449219 460.199219 89.316406 458.332031 91.613281 458.332031 L 174.09375 458.332031 C 176.394531 458.332031 178.257812 460.199219 178.257812 462.5 C 178.257812 464.800781 176.402344 466.667969 174.09375 466.667969 Z M 199.867188 466.667969 L 191.539062 466.667969 C 189.242188 466.667969 187.378906 464.800781 187.378906 462.5 C 187.378906 460.199219 189.242188 458.332031 191.539062 458.332031 L 199.867188 458.332031 C 202.167969 458.332031 204.03125 460.199219 204.03125 462.5 C 204.03125 464.800781 202.175781 466.667969 199.867188 466.667969 Z M 241.429688 483.332031 L 166.558594 483.332031 C 164.261719 483.332031 162.394531 481.464844 162.394531 479.167969 C 162.394531 476.867188 164.261719 475 166.558594 475 L 241.429688 475 C 243.726562 475 245.59375 476.867188 245.59375 479.167969 C 245.59375 481.464844 243.726562 483.332031 241.429688 483.332031 Z M 149.90625 483.332031 L 141.578125 483.332031 C 139.277344 483.332031 137.414062 481.464844 137.414062 479.167969 C 137.414062 476.867188 139.277344 475 141.578125 475 L 149.90625 475 C 152.203125 475 154.066406 476.867188 154.066406 479.167969 C 154.066406 481.464844 152.210938 483.332031 149.90625 483.332031 Z M 124.921875 483.332031 L 108.269531 483.332031 C 105.96875 483.332031 104.105469 481.464844 104.105469 479.167969 C 104.105469 476.867188 105.96875 475 108.269531 475 L 124.921875 475 C 127.222656 475 129.085938 476.867188 129.085938 479.167969 C 129.085938 481.464844 127.230469 483.332031 124.921875 483.332031 Z M 174.886719 500 L 158.230469 500 C 155.933594 500 154.066406 498.132812 154.066406 495.832031 C 154.066406 493.535156 155.933594 491.667969 158.230469 491.667969 L 174.886719 491.667969 C 177.183594 491.667969 179.050781 493.535156 179.050781 495.832031 C 179.050781 498.132812 177.183594 500 174.886719 500 Z M 199.867188 425 C 198.394531 425 193.015625 425 191.539062 425 C 189.242188 425 187.378906 426.867188 187.378906 429.167969 C 187.378906 431.464844 189.242188 433.332031 191.539062 433.332031 C 193.015625 433.332031 198.394531 433.332031 199.867188 433.332031 C 202.167969 433.332031 204.03125 431.464844 204.03125 429.167969 C 204.03125 426.867188 202.167969 425 199.867188 425 Z M 199.867188 441.667969 C 198.394531 441.667969 159.707031 441.667969 158.230469 441.667969 C 155.933594 441.667969 154.066406 443.535156 154.066406 445.832031 C 154.066406 448.132812 155.933594 450 158.230469 450 C 159.707031 450 198.394531 450 199.867188 450 C 202.167969 450 204.03125 448.132812 204.03125 445.832031 C 204.03125 443.535156 202.167969 441.667969 199.867188 441.667969 Z M 241.503906 458.332031 C 240.03125 458.332031 217.996094 458.332031 216.523438 458.332031 C 214.222656 458.332031 212.359375 460.199219 212.359375 462.5 C 212.359375 464.800781 214.222656 466.667969 216.523438 466.667969 C 217.996094 466.667969 240.03125 466.667969 241.503906 466.667969 C 243.804688 466.667969 245.667969 464.800781 245.667969 462.5 C 245.667969 460.199219 243.804688 458.332031 241.503906 458.332031 Z M 241.503906 458.332031 "/>
<path style=" stroke:none;fill-rule:nonzero;fill:rgb(100%,100%,100%);fill-opacity:1;" d="M 549.613281 83.332031 L 466.339844 83.332031 C 464.042969 83.332031 462.175781 81.464844 462.175781 79.167969 C 462.175781 76.867188 464.042969 75 466.339844 75 L 549.613281 75 C 551.910156 75 553.777344 76.867188 553.777344 79.167969 C 553.777344 81.464844 551.910156 83.332031 549.613281 83.332031 Z M 582.921875 83.332031 L 566.269531 83.332031 C 563.96875 83.332031 562.105469 81.464844 562.105469 79.167969 C 562.105469 76.867188 563.96875 75 566.269531 75 L 582.921875 75 C 585.222656 75 587.085938 76.867188 587.085938 79.167969 C 587.085938 81.464844 585.222656 83.332031 582.921875 83.332031 Z M 624.558594 100 L 541.285156 100 C 538.988281 100 537.121094 98.132812 537.121094 95.832031 C 537.121094 93.535156 538.988281 91.667969 541.285156 91.667969 L 624.558594 91.667969 C 626.859375 91.667969 628.722656 93.535156 628.722656 95.832031 C 628.722656 98.132812 626.867188 100 624.558594 100 Z M 524.632812 100 L 516.304688 100 C 514.007812 100 512.140625 98.132812 512.140625 95.832031 C 512.140625 93.535156 514.007812 91.667969 516.304688 91.667969 L 524.632812 91.667969 C 526.929688 91.667969 528.796875 93.535156 528.796875 95.832031 C 528.796875 98.132812 526.929688 100 524.632812 100 Z M 498.609375 100 L 482.996094 100 C 480.695312 100 478.832031 98.132812 478.832031 95.832031 C 478.832031 93.535156 480.695312 91.667969 482.996094 91.667969 L 498.609375 91.667969 C 500.90625 91.667969 502.773438 93.535156 502.773438 95.832031 C 502.773438 98.132812 500.90625 100 498.609375 100 Z M 574.59375 66.667969 L 532.960938 66.667969 C 530.660156 66.667969 528.796875 64.800781 528.796875 62.5 C 528.796875 60.199219 530.660156 58.332031 532.960938 58.332031 L 574.59375 58.332031 C 576.894531 58.332031 578.757812 60.199219 578.757812 62.5 C 578.757812 64.800781 576.902344 66.667969 574.59375 66.667969 Z M 549.613281 116.667969 L 532.960938 116.667969 C 530.660156 116.667969 528.796875 114.800781 528.796875 112.5 C 528.796875 110.199219 530.660156 108.332031 532.960938 108.332031 L 549.613281 108.332031 C 551.910156 108.332031 553.777344 110.199219 553.777344 112.5 C 553.777344 114.800781 551.910156 116.667969 549.613281 116.667969 Z M 549.613281 116.667969 "/>
<path style=" stroke:none;fill-rule:nonzero;fill:rgb(99.21875%,98.81897%,93.728638%);fill-opacity:1;" d="M 233.175781 354.167969 C 233.175781 354.167969 246.226562 354.167969 262.324219 354.167969 C 278.417969 354.167969 291.46875 341.109375 291.46875 325 C 291.46875 310.160156 280.351562 298.050781 266.027344 296.207031 C 266.261719 294.714844 266.488281 293.226562 266.488281 291.667969 C 266.488281 275.558594 253.4375 262.5 237.339844 262.5 C 228.746094 262.5 221.101562 266.292969 215.773438 272.207031 C 212.574219 257.140625 199.226562 245.832031 183.214844 245.832031 C 164.820312 245.832031 149.90625 260.757812 149.90625 279.167969 C 149.90625 280.757812 150.15625 282.285156 150.371094 283.816406 C 146.808594 280.949219 142.34375 279.167969 137.414062 279.167969 C 127.1875 279.167969 118.71875 286.558594 116.96875 296.292969 C 115.480469 296.058594 113.988281 295.832031 112.433594 295.832031 C 96.335938 295.832031 83.285156 308.890625 83.285156 325 C 83.285156 341.109375 96.335938 354.167969 112.433594 354.167969 C 128.527344 354.167969 174.886719 354.167969 174.886719 354.167969 L 174.886719 358.332031 L 233.175781 358.332031 Z M 233.175781 354.167969 "/>
<path style=" stroke:none;fill-rule:nonzero;fill:rgb(27.839661%,16.859436%,16.079712%);fill-opacity:1;" d="M 247.75 316.667969 C 246.601562 316.667969 245.667969 315.734375 245.667969 314.582031 C 245.667969 304.390625 253.953125 296.101562 264.136719 296.101562 C 264.421875 296.175781 270.273438 296.089844 274.496094 297.234375 C 275.605469 297.535156 276.261719 298.675781 275.960938 299.785156 C 275.664062 300.898438 274.523438 301.558594 273.414062 301.25 C 269.71875 300.25 264.253906 300.25 264.144531 300.265625 C 256.253906 300.265625 249.832031 306.691406 249.832031 314.582031 C 249.832031 315.734375 248.898438 316.667969 247.75 316.667969 Z M 191.539062 350 C 191.265625 350 190.996094 350.027344 190.730469 350.078125 C 190.460938 350.132812 190.199219 350.210938 189.949219 350.316406 C 189.695312 350.421875 189.453125 350.550781 189.226562 350.703125 C 189 350.855469 188.789062 351.027344 188.597656 351.21875 C 188.402344 351.414062 188.230469 351.625 188.078125 351.851562 C 187.925781 352.078125 187.796875 352.320312 187.695312 352.570312 C 187.589844 352.824219 187.511719 353.085938 187.457031 353.355469 C 187.402344 353.621094 187.378906 353.894531 187.378906 354.167969 C 187.378906 354.441406 187.402344 354.710938 187.457031 354.980469 C 187.511719 355.246094 187.589844 355.507812 187.695312 355.761719 C 187.796875 356.015625 187.925781 356.253906 188.078125 356.480469 C 188.230469 356.707031 188.402344 356.917969 188.597656 357.113281 C 188.789062 357.304688 189 357.480469 189.226562 357.632812 C 189.453125 357.78125 189.695312 357.910156 189.949219 358.015625 C 190.199219 358.121094 190.460938 358.199219 190.730469 358.253906 C 190.996094 358.304688 191.265625 358.332031 191.539062 358.332031 C 191.8125 358.332031 192.085938 358.304688 192.351562 358.253906 C 192.621094 358.199219 192.882812 358.121094 193.132812 358.015625 C 193.386719 357.910156 193.625 357.78125 193.855469 357.632812 C 194.082031 357.480469 194.292969 357.304688 194.484375 357.113281 C 194.679688 356.917969 194.851562 356.707031 195.003906 356.480469 C 195.15625 356.253906 195.28125 356.015625 195.386719 355.761719 C 195.492188 355.507812 195.570312 355.246094 195.625 354.980469 C 195.679688 354.710938 195.703125 354.441406 195.703125 354.167969 C 195.703125 353.894531 195.679688 353.621094 195.625 353.355469 C 195.570312 353.085938 195.492188 352.824219 195.386719 352.570312 C 195.28125 352.320312 195.15625 352.078125 195.003906 351.851562 C 194.851562 351.625 194.679688 351.414062 194.484375 351.21875 C 194.292969 351.027344 194.082031 350.855469 193.855469 350.703125 C 193.625 350.550781 193.386719 350.421875 193.132812 350.316406 C 192.882812 350.210938 192.621094 350.132812 192.351562 350.078125 C 192.085938 350.027344 191.8125 350 191.539062 350 Z M 191.539062 350 "/>
<path style=" stroke:none;fill-rule:nonzero;fill:rgb(27.839661%,16.859436%,16.079712%);fill-opacity:1;" d="M 262.324219 358.332031 L 233.175781 358.332031 C 230.878906 358.332031 229.015625 356.464844 229.015625 354.167969 C 229.015625 351.867188 230.878906 350 233.175781 350 L 262.324219 350 C 276.097656 350 287.304688 338.785156 287.304688 325 C 287.304688 312.535156 277.9375 301.933594 265.503906 300.339844 C 264.386719 300.191406 263.378906 299.609375 262.707031 298.707031 C 262.03125 297.808594 261.75 296.675781 261.921875 295.566406 C 262.113281 294.285156 262.324219 293 262.324219 291.667969 C 262.324219 277.882812 251.113281 266.667969 237.339844 266.667969 C 230.261719 266.667969 223.699219 269.625 218.863281 275 C 217.820312 276.160156 216.191406 276.648438 214.699219 276.234375 C 213.183594 275.824219 212.027344 274.609375 211.703125 273.074219 C 208.863281 259.707031 196.878906 250 183.214844 250 C 167.140625 250 154.066406 263.082031 154.066406 279.167969 C 154.066406 280.359375 154.242188 281.5 154.410156 282.648438 C 154.652344 284.339844 153.886719 286.300781 152.394531 287.148438 C 150.902344 288 149.097656 288.132812 147.765625 287.066406 C 144.726562 284.625 141.152344 283.332031 137.414062 283.332031 C 129.371094 283.332031 122.492188 289.089844 121.066406 297.035156 C 120.667969 299.257812 118.601562 300.75 116.328125 300.410156 C 115.046875 300.207031 113.765625 300 112.433594 300 C 98.660156 300 87.449219 311.214844 87.449219 325 C 87.449219 338.785156 98.660156 350 112.433594 350 L 174.886719 350 C 177.183594 350 179.050781 351.867188 179.050781 354.167969 C 179.050781 356.464844 177.183594 358.332031 174.886719 358.332031 L 112.433594 358.332031 C 94.0625 358.332031 79.121094 343.382812 79.121094 325 C 79.121094 306.617188 94.0625 291.667969 112.433594 291.667969 C 112.921875 291.667969 113.398438 291.683594 113.878906 291.714844 C 117.328125 281.832031 126.679688 275 137.414062 275 C 140.320312 275 143.152344 275.507812 145.832031 276.5 C 147.207031 257.058594 163.445312 241.667969 183.214844 241.667969 C 198.460938 241.667969 212.074219 251.058594 217.796875 264.785156 C 223.460938 260.632812 230.304688 258.332031 237.339844 258.332031 C 255.710938 258.332031 270.648438 273.285156 270.648438 291.667969 C 270.648438 292.066406 270.640625 292.457031 270.617188 292.851562 C 285.132812 296.582031 295.632812 309.742188 295.632812 325 C 295.632812 343.382812 280.691406 358.332031 262.324219 358.332031 Z M 262.324219 358.332031 "/>
<path style=" stroke:none;fill-rule:nonzero;fill:rgb(27.839661%,16.859436%,16.079712%);fill-opacity:1;" d="M 216.523438 350 C 215.199219 350 209.519531 350 208.195312 350 C 205.898438 350 204.03125 351.867188 204.03125 354.167969 C 204.03125 356.464844 205.898438 358.332031 208.195312 358.332031 C 209.519531 358.332031 215.199219 358.332031 216.523438 358.332031 C 218.820312 358.332031 220.6875 356.464844 220.6875 354.167969 C 220.6875 351.867188 218.820312 350 216.523438 350 Z M 216.523438 350 "/>
<path style=" stroke:none;fill-rule:nonzero;fill:rgb(63.139343%,82.749939%,63.529968%);fill-opacity:1;" d="M 332.054688 393.800781 L 332.054688 380.101562 C 332.054688 334.082031 361.882812 309.476562 390.730469 285.683594 C 414.019531 266.476562 436.011719 248.332031 436.011719 220.984375 C 436.011719 192.566406 412.273438 163.167969 372.558594 163.167969 C 334.078125 163.167969 308.039062 185.265625 303.433594 221.242188 L 246.699219 221.242188 C 251.65625 155.015625 300.785156 114.160156 376.332031 114.160156 C 450.96875 114.160156 503.097656 157.007812 503.097656 218.367188 C 503.097656 257.601562 484.960938 286.609375 444.296875 312.449219 C 408.847656 334.964844 403.554688 368.042969 403.554688 385.75 L 403.554688 393.792969 L 332.054688 393.792969 Z M 332.054688 393.800781 "/>
<path style=" stroke:none;fill-rule:nonzero;fill:rgb(27.839661%,16.859436%,16.079712%);fill-opacity:1;" d="M 376.332031 120 C 448.671875 120 497.269531 159.535156 497.269531 218.375 C 497.269531 255.390625 479.964844 282.890625 441.167969 307.535156 C 403.371094 331.550781 397.734375 366.851562 397.734375 385.757812 L 397.734375 387.964844 L 337.882812 387.964844 L 337.882812 380.101562 C 337.882812 336.832031 366.636719 313.125 394.441406 290.191406 C 418.816406 270.082031 441.851562 251.089844 441.851562 220.992188 C 441.851562 189.707031 415.9375 157.351562 372.566406 157.351562 C 333.335938 157.351562 305.265625 179.792969 298.480469 215.425781 L 253.113281 215.425781 C 260.265625 155.410156 305.5 120 376.332031 120 M 376.332031 108.332031 C 290.160156 108.332031 242.871094 158.273438 240.546875 227.082031 L 308.730469 227.082031 C 311.054688 191.660156 335.136719 169.007812 372.558594 169.007812 C 409.117188 169.007812 430.183594 195.714844 430.183594 220.984375 C 430.183594 276.476562 326.226562 292.507812 326.226562 380.089844 L 326.226562 399.625 L 409.390625 399.625 L 409.390625 385.75 C 409.390625 362.199219 418.984375 335.441406 447.421875 317.375 C 486.203125 292.75 508.925781 262.792969 508.925781 218.367188 C 508.933594 154.207031 455.832031 108.332031 376.332031 108.332031 Z M 376.332031 108.332031 "/>
<path style=" stroke:none;fill-rule:nonzero;fill:rgb(63.139343%,82.749939%,63.529968%);fill-opacity:1;" d="M 367.8125 447.074219 C 366.414062 447.074219 365.019531 447.144531 363.628906 447.28125 C 362.238281 447.417969 360.855469 447.621094 359.484375 447.894531 C 358.113281 448.167969 356.757812 448.507812 355.421875 448.914062 C 354.082031 449.320312 352.769531 449.792969 351.476562 450.328125 C 350.1875 450.863281 348.921875 451.460938 347.691406 452.117188 C 346.457031 452.777344 345.261719 453.496094 344.097656 454.273438 C 342.933594 455.050781 341.8125 455.882812 340.734375 456.769531 C 339.652344 457.660156 338.617188 458.597656 337.628906 459.585938 C 336.640625 460.574219 335.703125 461.609375 334.816406 462.691406 C 333.929688 463.773438 333.097656 464.894531 332.320312 466.058594 C 331.542969 467.222656 330.828125 468.421875 330.167969 469.65625 C 329.507812 470.890625 328.910156 472.152344 328.375 473.445312 C 327.839844 474.738281 327.371094 476.054688 326.964844 477.390625 C 326.558594 478.730469 326.21875 480.085938 325.945312 481.457031 C 325.675781 482.832031 325.46875 484.210938 325.332031 485.605469 C 325.195312 486.996094 325.128906 488.394531 325.128906 489.792969 C 325.128906 491.191406 325.195312 492.585938 325.332031 493.980469 C 325.46875 495.371094 325.675781 496.753906 325.945312 498.125 C 326.21875 499.496094 326.558594 500.851562 326.964844 502.191406 C 327.371094 503.53125 327.839844 504.847656 328.375 506.136719 C 328.910156 507.429688 329.507812 508.695312 330.167969 509.929688 C 330.828125 511.160156 331.542969 512.359375 332.320312 513.523438 C 333.097656 514.6875 333.929688 515.808594 334.816406 516.890625 C 335.703125 517.972656 336.640625 519.007812 337.628906 519.996094 C 338.617188 520.984375 339.652344 521.925781 340.734375 522.8125 C 341.8125 523.699219 342.933594 524.53125 344.097656 525.308594 C 345.261719 526.085938 346.457031 526.804688 347.691406 527.464844 C 348.921875 528.125 350.1875 528.722656 351.476562 529.257812 C 352.769531 529.792969 354.082031 530.261719 355.421875 530.667969 C 356.757812 531.074219 358.113281 531.414062 359.484375 531.6875 C 360.855469 531.960938 362.238281 532.164062 363.628906 532.300781 C 365.019531 532.441406 366.414062 532.507812 367.8125 532.507812 C 369.210938 532.507812 370.605469 532.441406 371.996094 532.300781 C 373.386719 532.164062 374.769531 531.960938 376.140625 531.6875 C 377.511719 531.414062 378.867188 531.074219 380.203125 530.667969 C 381.542969 530.261719 382.855469 529.792969 384.148438 529.257812 C 385.4375 528.722656 386.703125 528.125 387.933594 527.464844 C 389.167969 526.804688 390.363281 526.085938 391.527344 525.308594 C 392.691406 524.53125 393.8125 523.699219 394.890625 522.8125 C 395.972656 521.925781 397.007812 520.984375 397.996094 519.996094 C 398.984375 519.007812 399.921875 517.972656 400.808594 516.890625 C 401.695312 515.808594 402.527344 514.6875 403.304688 513.523438 C 404.082031 512.359375 404.800781 511.160156 405.457031 509.929688 C 406.117188 508.695312 406.714844 507.429688 407.25 506.136719 C 407.785156 504.847656 408.253906 503.53125 408.660156 502.191406 C 409.066406 500.851562 409.40625 499.496094 409.679688 498.125 C 409.949219 496.753906 410.15625 495.371094 410.292969 493.980469 C 410.429688 492.585938 410.5 491.191406 410.5 489.792969 C 410.5 488.394531 410.429688 486.996094 410.292969 485.605469 C 410.15625 484.210938 409.949219 482.832031 409.679688 481.457031 C 409.40625 480.085938 409.066406 478.730469 408.660156 477.390625 C 408.253906 476.054688 407.785156 474.738281 407.25 473.445312 C 406.714844 472.152344 406.117188 470.890625 405.457031 469.65625 C 404.800781 468.421875 404.082031 467.222656 403.304688 466.058594 C 402.527344 464.894531 401.695312 463.773438 400.808594 462.691406 C 399.921875 461.609375 398.984375 460.574219 397.996094 459.585938 C 397.007812 458.597656 395.972656 457.660156 394.890625 456.769531 C 393.8125 455.882812 392.691406 455.050781 391.527344 454.273438 C 390.363281 453.496094 389.167969 452.777344 387.933594 452.117188 C 386.703125 451.460938 385.4375 450.863281 384.148438 450.328125 C 382.855469 449.792969 381.542969 449.320312 380.203125 448.914062 C 378.867188 448.507812 377.511719 448.167969 376.140625 447.894531 C 374.769531 447.621094 373.386719 447.417969 371.996094 447.28125 C 370.605469 447.144531 369.210938 447.074219 367.8125 447.074219 Z M 367.8125 447.074219 "/>
<path style=" stroke:none;fill-rule:nonzero;fill:rgb(27.839661%,16.859436%,16.079712%);fill-opacity:1;" d="M 367.8125 452.910156 C 388.132812 452.910156 404.667969 469.449219 404.667969 489.792969 C 404.667969 510.132812 388.140625 526.675781 367.8125 526.675781 C 347.484375 526.675781 330.957031 510.132812 330.957031 489.792969 C 330.957031 469.449219 347.484375 452.910156 367.8125 452.910156 M 367.8125 441.242188 C 341.015625 441.242188 319.296875 462.976562 319.296875 489.792969 C 319.296875 516.609375 341.015625 538.339844 367.8125 538.339844 C 394.609375 538.339844 416.328125 516.609375 416.328125 489.792969 C 416.328125 462.976562 394.601562 441.242188 367.8125 441.242188 Z M 367.8125 441.242188 "/>
<path style=" stroke:none;fill-rule:nonzero;fill:rgb(27.839661%,16.859436%,16.079712%);fill-opacity:1;" d="M 414.144531 149.089844 C 413.789062 149.089844 413.421875 149.042969 413.054688 148.941406 C 401.8125 145.890625 389.464844 144.339844 376.332031 144.339844 C 374.03125 144.339844 372.167969 142.476562 372.167969 140.175781 C 372.167969 137.875 374.03125 136.007812 376.332031 136.007812 C 390.195312 136.007812 403.285156 137.648438 415.238281 140.898438 C 417.460938 141.5 418.765625 143.792969 418.167969 146.007812 C 417.660156 147.867188 415.984375 149.089844 414.144531 149.089844 Z M 414.144531 149.089844 "/>
<path style=" stroke:none;fill-rule:nonzero;fill:rgb(27.839661%,16.859436%,16.079712%);fill-opacity:1;" d="M 457.863281 173.910156 C 456.757812 173.910156 455.65625 173.464844 454.839844 172.609375 C 450.351562 167.851562 445.066406 163.601562 439.128906 159.957031 C 436.414062 158.292969 433.546875 156.75 430.566406 155.332031 C 428.484375 154.351562 427.601562 151.859375 428.585938 149.785156 C 429.574219 147.699219 432.058594 146.832031 434.132812 147.800781 C 437.410156 149.359375 440.550781 151.058594 443.484375 152.851562 C 450.035156 156.859375 455.898438 161.582031 460.894531 166.875 C 462.46875 168.550781 462.402344 171.191406 460.726562 172.765625 C 459.921875 173.535156 458.886719 173.910156 457.863281 173.910156 Z M 457.863281 173.910156 "/>
<path style=" stroke:none;fill-rule:nonzero;fill:rgb(27.839661%,16.859436%,16.079712%);fill-opacity:1;" d="M 382.992188 371.089844 C 382.828125 371.089844 382.667969 371.082031 382.492188 371.066406 C 380.21875 370.800781 378.578125 368.726562 378.847656 366.433594 C 382.609375 334.285156 400.15625 306.742188 428.226562 288.898438 C 459.679688 268.910156 473.109375 248.167969 473.109375 219.566406 C 473.109375 211.148438 471.761719 203.109375 469.097656 195.667969 C 468.023438 192.667969 466.707031 189.699219 465.175781 186.867188 C 464.085938 184.839844 464.84375 182.308594 466.867188 181.214844 C 468.90625 180.140625 471.414062 180.890625 472.511719 182.910156 C 474.234375 186.117188 475.726562 189.457031 476.933594 192.839844 C 479.921875 201.199219 481.4375 210.183594 481.4375 219.558594 C 481.4375 251.375 466.855469 274.214844 432.691406 295.925781 C 406.785156 312.398438 390.597656 337.773438 387.132812 367.398438 C 386.875 369.535156 385.074219 371.089844 382.992188 371.089844 Z M 382.992188 371.089844 "/>
<path style=" stroke:none;fill-rule:nonzero;fill:rgb(27.839661%,16.859436%,16.079712%);fill-opacity:1;" d="M 365.679688 517.042969 C 363.382812 517.042969 361.515625 515.175781 361.515625 512.875 C 361.515625 510.574219 363.382812 508.707031 365.679688 508.707031 C 369.570312 508.707031 373.367188 507.351562 376.375 504.875 C 380.296875 501.648438 382.542969 496.890625 382.542969 491.824219 C 382.542969 482.515625 374.984375 474.949219 365.679688 474.949219 C 361.167969 474.949219 356.929688 476.707031 353.746094 479.890625 C 352.125 481.515625 349.484375 481.515625 347.859375 479.890625 C 346.238281 478.265625 346.238281 475.625 347.859375 474 C 352.617188 469.242188 358.945312 466.617188 365.679688 466.617188 C 379.570312 466.617188 390.871094 477.925781 390.871094 491.824219 C 390.871094 499.398438 387.515625 506.507812 381.660156 511.324219 C 377.164062 515.007812 371.484375 517.042969 365.679688 517.042969 Z M 365.679688 517.042969 "/>
</g>
</svg>
